<?xml version="1.0" encoding="UTF-8" standalone="no"?>
<!-- Created with Inkscape (http://www.inkscape.org/) -->

<svg
   width="23.493753mm"
   height="23.493746mm"
   viewBox="0 0 23.493753 23.493746"
   version="1.1"
   id="svg1"
   xml:space="preserve"
   xmlns="http://www.w3.org/2000/svg"
   xmlns:svg="http://www.w3.org/2000/svg"><defs
     id="defs1" /><g
     id="layer1"
     transform="translate(-95.434381,-133.05697)"><path
       id="path1"
       style="fill:#000080;stroke:none;stroke-width:0.135287;stroke-linecap:round;stroke-linejoin:round;stroke-dasharray:none;stroke-opacity:1"
       d="m 107.18129,133.05697 a 11.746843,11.746843 0 0 0 -11.746908,11.74691 11.746843,11.746843 0 0 0 11.746908,11.74684 11.746843,11.746843 0 0 0 11.74684,-11.74684 11.746843,11.746843 0 0 0 -11.74684,-11.74691 z m 1.00834,7.80179 c 1.29144,0.0177 4.29893,2.24676 4.352,2.5652 0.0531,0.31844 -3.41434,-1.23838 -3.83892,-1.02609 -0.42459,0.21229 -0.76072,1.75141 -0.74302,1.82218 0.0177,0.0708 3.29053,1.83986 3.27284,2.21137 -0.0177,0.37151 -0.4423,0.24764 -0.60152,0.17688 -0.15922,-0.0708 -1.25604,-1.25603 -1.96368,-1.27372 -0.70764,-0.0177 -1.37995,0.47766 -1.57455,0.68995 -0.1946,0.2123 -1.55681,-0.54841 -1.80449,-0.7607 0,0 1.60989,-4.42276 2.90134,-4.40507 z m -4.40507,0.63683 a 1.6098834,1.6098834 0 0 1 1.60993,1.60992 1.6098834,1.6098834 0 0 1 -1.60993,1.60986 1.6098834,1.6098834 0 0 1 -1.60985,-1.60986 1.6098834,1.6098834 0 0 1 1.60985,-1.60992 z m 4.82964,4.22818 c 1.13439,0.0119 1.50517,1.39466 2.67139,1.4153 0.89191,0.0158 1.71457,-1.18678 1.82232,-1.3458 l 0.0672,0.40751 c -0.10462,0.18404 -0.93041,1.36158 -1.82232,1.3458 -1.16623,-0.0206 -1.537,-1.40337 -2.6714,-1.41529 -1.55691,-0.0164 -1.87818,1.61273 -3.07821,1.66292 -1.65173,0.0691 -1.68066,-1.2914 -2.84827,-1.34447 -0.90131,-0.041 -1.34454,0.65451 -1.34454,0.65451 l -0.0671,-0.40745 c 0,0 0.44316,-0.69555 1.34447,-0.65458 1.16761,0.0531 1.19654,1.41363 2.84827,1.34454 1.20002,-0.0502 1.5213,-1.67934 3.07821,-1.66299 z m -0.0349,1.43187 c 1.13439,0.0119 1.5051,1.39466 2.67133,1.41529 0.89191,0.0158 1.71464,-1.18671 1.82239,-1.34573 l 0.0671,0.40744 c -0.10462,0.18404 -0.93041,1.36158 -1.82232,1.3458 -1.16623,-0.0206 -1.53693,-1.40337 -2.67132,-1.41529 -1.55692,-0.0164 -1.87826,1.6128 -3.07828,1.66299 -1.65174,0.0691 -1.68067,-1.29147 -2.84827,-1.34454 -0.90131,-0.041 -1.34447,0.65458 -1.34447,0.65458 l -0.0672,-0.40751 c 0,0 0.44316,-0.69556 1.34447,-0.65459 1.16761,0.0531 1.19654,1.41363 2.84827,1.34454 1.20003,-0.0502 1.52137,-1.67934 3.07828,-1.66298 z" /></g></svg>
